<svg width="100" height="150" viewBox="0 0 100 150" fill="none" xmlns="http://www.w3.org/2000/svg">
<rect width="100" height="150" fill="white"/>
<path d="M33.5 107L27 129.5H33.5" stroke="black"/>
<path d="M39.5 107L33 129.5H39.5" stroke="black"/>
<path d="M61.5 107L55 129.5H61.5" stroke="black"/>
<path d="M45 108L39 130" stroke="black"/>
<path d="M43.5665 114.109C43.5433 114.072 43.5211 114.036 43.5 114L43.5665 114.109Z" fill="black"/>
<path d="M45 108.5C51.5 106.167 62.8 103.8 56 111C49.2 118.2 44.6667 116 43.5 114L53 129.5" stroke="black"/>
<path d="M27 129.5H72.5" stroke="black"/>
<circle cx="62" cy="105.5" r="0.5" fill="black"/>
<path d="M61.5 107.5C63.3333 108 69.6 109.4 70 113C70.4 116.6 59.6667 125.667 55.5 129.5" stroke="black"/>
<path d="M52 41L60.6603 71H43.3397L52 41Z" fill="#0000FF"/>
<circle cx="51.5" cy="33.5" r="12" fill="#EBFF00" stroke="#FF0000"/>
<path d="M42.6611 24.6612L60.3388 42.3389" stroke="#FF0000"/>
<path d="M43 42.6777L60.6777 25" stroke="#FF0000"/>
<path d="M49.635 27.045C49.635 27.205 49.595 27.3583 49.515 27.505C49.435 27.6483 49.3167 27.7683 49.16 27.865C49.0067 27.9617 48.8217 28.0167 48.605 28.03V28.435H48.335V28.03C48.0317 28.0033 47.785 27.9067 47.595 27.74C47.405 27.57 47.3083 27.355 47.305 27.095H47.79C47.8033 27.235 47.855 27.3567 47.945 27.46C48.0383 27.5633 48.1683 27.6283 48.335 27.655V26.405C48.1117 26.3483 47.9317 26.29 47.795 26.23C47.6583 26.17 47.5417 26.0767 47.445 25.95C47.3483 25.8233 47.3 25.6533 47.3 25.44C47.3 25.17 47.3933 24.9467 47.58 24.77C47.77 24.5933 48.0217 24.495 48.335 24.475V24.06H48.605V24.475C48.8883 24.4983 49.1167 24.59 49.29 24.75C49.4633 24.9067 49.5633 25.1117 49.59 25.365H49.105C49.0883 25.2483 49.0367 25.1433 48.95 25.05C48.8633 24.9533 48.7483 24.89 48.605 24.86V26.08C48.825 26.1367 49.0033 26.195 49.14 26.255C49.28 26.3117 49.3967 26.4033 49.49 26.53C49.5867 26.6567 49.635 26.8283 49.635 27.045ZM47.765 25.415C47.765 25.5783 47.8133 25.7033 47.91 25.79C48.0067 25.8767 48.1483 25.9483 48.335 26.005V24.85C48.1617 24.8667 48.0233 24.9233 47.92 25.02C47.8167 25.1133 47.765 25.245 47.765 25.415ZM48.605 27.66C48.785 27.64 48.925 27.575 49.025 27.465C49.1283 27.355 49.18 27.2233 49.18 27.07C49.18 26.9067 49.13 26.7817 49.03 26.695C48.93 26.605 48.7883 26.5333 48.605 26.48V27.66ZM52.7454 27.045C52.7454 27.205 52.7054 27.3583 52.6254 27.505C52.5454 27.6483 52.427 27.7683 52.2704 27.865C52.117 27.9617 51.932 28.0167 51.7154 28.03V28.435H51.4454V28.03C51.142 28.0033 50.8954 27.9067 50.7054 27.74C50.5154 27.57 50.4187 27.355 50.4154 27.095H50.9004C50.9137 27.235 50.9654 27.3567 51.0554 27.46C51.1487 27.5633 51.2787 27.6283 51.4454 27.655V26.405C51.222 26.3483 51.042 26.29 50.9054 26.23C50.7687 26.17 50.652 26.0767 50.5554 25.95C50.4587 25.8233 50.4104 25.6533 50.4104 25.44C50.4104 25.17 50.5037 24.9467 50.6904 24.77C50.8804 24.5933 51.132 24.495 51.4454 24.475V24.06H51.7154V24.475C51.9987 24.4983 52.227 24.59 52.4004 24.75C52.5737 24.9067 52.6737 25.1117 52.7004 25.365H52.2154C52.1987 25.2483 52.147 25.1433 52.0604 25.05C51.9737 24.9533 51.8587 24.89 51.7154 24.86V26.08C51.9354 26.1367 52.1137 26.195 52.2504 26.255C52.3904 26.3117 52.507 26.4033 52.6004 26.53C52.697 26.6567 52.7454 26.8283 52.7454 27.045ZM50.8754 25.415C50.8754 25.5783 50.9237 25.7033 51.0204 25.79C51.117 25.8767 51.2587 25.9483 51.4454 26.005V24.85C51.272 24.8667 51.1337 24.9233 51.0304 25.02C50.927 25.1133 50.8754 25.245 50.8754 25.415ZM51.7154 27.66C51.8954 27.64 52.0354 27.575 52.1354 27.465C52.2387 27.355 52.2904 27.2233 52.2904 27.07C52.2904 26.9067 52.2404 26.7817 52.1404 26.695C52.0404 26.605 51.8987 26.5333 51.7154 26.48V27.66ZM55.8557 27.045C55.8557 27.205 55.8157 27.3583 55.7357 27.505C55.6557 27.6483 55.5374 27.7683 55.3807 27.865C55.2274 27.9617 55.0424 28.0167 54.8257 28.03V28.435H54.5557V28.03C54.2524 28.0033 54.0057 27.9067 53.8157 27.74C53.6257 27.57 53.529 27.355 53.5257 27.095H54.0107C54.024 27.235 54.0757 27.3567 54.1657 27.46C54.259 27.5633 54.389 27.6283 54.5557 27.655V26.405C54.3324 26.3483 54.1524 26.29 54.0157 26.23C53.879 26.17 53.7624 26.0767 53.6657 25.95C53.569 25.8233 53.5207 25.6533 53.5207 25.44C53.5207 25.17 53.614 24.9467 53.8007 24.77C53.9907 24.5933 54.2424 24.495 54.5557 24.475V24.06H54.8257V24.475C55.109 24.4983 55.3374 24.59 55.5107 24.75C55.684 24.9067 55.784 25.1117 55.8107 25.365H55.3257C55.309 25.2483 55.2574 25.1433 55.1707 25.05C55.084 24.9533 54.969 24.89 54.8257 24.86V26.08C55.0457 26.1367 55.224 26.195 55.3607 26.255C55.5007 26.3117 55.6174 26.4033 55.7107 26.53C55.8074 26.6567 55.8557 26.8283 55.8557 27.045ZM53.9857 25.415C53.9857 25.5783 54.034 25.7033 54.1307 25.79C54.2274 25.8767 54.369 25.9483 54.5557 26.005V24.85C54.3824 24.8667 54.244 24.9233 54.1407 25.02C54.0374 25.1133 53.9857 25.245 53.9857 25.415ZM54.8257 27.66C55.0057 27.64 55.1457 27.575 55.2457 27.465C55.349 27.355 55.4007 27.2233 55.4007 27.07C55.4007 26.9067 55.3507 26.7817 55.2507 26.695C55.1507 26.605 55.009 26.5333 54.8257 26.48V27.66Z" fill="#205114"/>
<path d="M42.31 34.155C42.31 33.5817 42.4033 33.135 42.59 32.815C42.7767 32.4917 43.1033 32.33 43.57 32.33C44.0333 32.33 44.3583 32.4917 44.545 32.815C44.7317 33.135 44.825 33.5817 44.825 34.155C44.825 34.7383 44.7317 35.1917 44.545 35.515C44.3583 35.8383 44.0333 36 43.57 36C43.1033 36 42.7767 35.8383 42.59 35.515C42.4033 35.1917 42.31 34.7383 42.31 34.155ZM44.375 34.155C44.375 33.865 44.355 33.62 44.315 33.42C44.2783 33.2167 44.2 33.0533 44.08 32.93C43.9633 32.8067 43.7933 32.745 43.57 32.745C43.3433 32.745 43.17 32.8067 43.05 32.93C42.9333 33.0533 42.855 33.2167 42.815 33.42C42.7783 33.62 42.76 33.865 42.76 34.155C42.76 34.455 42.7783 34.7067 42.815 34.91C42.855 35.1133 42.9333 35.2767 43.05 35.4C43.17 35.5233 43.3433 35.585 43.57 35.585C43.7933 35.585 43.9633 35.5233 44.08 35.4C44.2 35.2767 44.2783 35.1133 44.315 34.91C44.355 34.7067 44.375 34.455 44.375 34.155Z" fill="#FF0000"/>
<path d="M59.275 32.47C59.605 32.47 59.8717 32.5633 60.075 32.75C60.2783 32.9367 60.38 33.1867 60.38 33.5C60.38 33.85 60.2717 34.11 60.055 34.28C59.8383 34.4467 59.545 34.53 59.175 34.53L59.16 35.005H58.765L58.745 34.215H58.89C59.22 34.215 59.4783 34.165 59.665 34.065C59.8517 33.965 59.945 33.7767 59.945 33.5C59.945 33.3 59.885 33.1417 59.765 33.025C59.645 32.9083 59.4833 32.85 59.28 32.85C59.0733 32.85 58.91 32.9067 58.79 33.02C58.6733 33.13 58.615 33.2817 58.615 33.475H58.185C58.185 33.275 58.23 33.1 58.32 32.95C58.41 32.7967 58.5367 32.6783 58.7 32.595C58.8667 32.5117 59.0583 32.47 59.275 32.47ZM58.96 36.03C58.8733 36.03 58.8 36 58.74 35.94C58.68 35.88 58.65 35.8067 58.65 35.72C58.65 35.6333 58.68 35.56 58.74 35.5C58.8 35.44 58.8733 35.41 58.96 35.41C59.0433 35.41 59.1133 35.44 59.17 35.5C59.23 35.56 59.26 35.6333 59.26 35.72C59.26 35.8067 59.23 35.88 59.17 35.94C59.1133 36 59.0433 36.03 58.96 36.03Z" fill="#2616E9"/>
<path d="M52.635 42.045C52.635 42.205 52.595 42.3583 52.515 42.505C52.435 42.6483 52.3167 42.7683 52.16 42.865C52.0067 42.9617 51.8217 43.0167 51.605 43.03V43.435H51.335V43.03C51.0317 43.0033 50.785 42.9067 50.595 42.74C50.405 42.57 50.3083 42.355 50.305 42.095H50.79C50.8033 42.235 50.855 42.3567 50.945 42.46C51.0383 42.5633 51.1683 42.6283 51.335 42.655V41.405C51.1117 41.3483 50.9317 41.29 50.795 41.23C50.6583 41.17 50.5417 41.0767 50.445 40.95C50.3483 40.8233 50.3 40.6533 50.3 40.44C50.3 40.17 50.3933 39.9467 50.58 39.77C50.77 39.5933 51.0217 39.495 51.335 39.475V39.06H51.605V39.475C51.8883 39.4983 52.1167 39.59 52.29 39.75C52.4633 39.9067 52.5633 40.1117 52.59 40.365H52.105C52.0883 40.2483 52.0367 40.1433 51.95 40.05C51.8633 39.9533 51.7483 39.89 51.605 39.86V41.08C51.825 41.1367 52.0033 41.195 52.14 41.255C52.28 41.3117 52.3967 41.4033 52.49 41.53C52.5867 41.6567 52.635 41.8283 52.635 42.045ZM50.765 40.415C50.765 40.5783 50.8133 40.7033 50.91 40.79C51.0067 40.8767 51.1483 40.9483 51.335 41.005V39.85C51.1617 39.8667 51.0233 39.9233 50.92 40.02C50.8167 40.1133 50.765 40.245 50.765 40.415ZM51.605 42.66C51.785 42.64 51.925 42.575 52.025 42.465C52.1283 42.355 52.18 42.2233 52.18 42.07C52.18 41.9067 52.13 41.7817 52.03 41.695C51.93 41.605 51.7883 41.5333 51.605 41.48V42.66Z" fill="#205114"/>
</svg>
