<svg width="400" height="140" viewBox="0 0 400 140" fill="none" xmlns="http://www.w3.org/2000/svg">
<rect y="67" width="400" height="7" fill="#2616E9"/>
<path d="M136.704 36.5036L200.16 2.83019L263.617 36.5036V103.496L200.16 137.17L136.704 103.496V36.5036Z" fill="#24FF00" stroke="#2616E9" stroke-width="5"/>
<path d="M155 71.3438L152.312 79.9688L149.688 80.2188L145.5 67.5938L147.312 66.9688L150.938 77.4062L154.125 67.5938H156.188L158.438 77.0312L161.312 67.4062L163.188 67.7812L159.375 80.3438H157.25L155 71.3438ZM173.125 69.9688H167.188V80.0312L165.25 80.2188V60.5312H167.125V67.9688H173.562L175 68.6562L176.25 80.0312L174.25 80.1562L173.125 69.9688ZM189.25 70.7812L191.25 79.2812L189.375 79.9688L188.25 74.6562C188.104 75.2396 187.875 75.8438 187.562 76.4688C187.271 77.0938 186.896 77.6667 186.438 78.1875C186 78.6875 185.469 79.1042 184.844 79.4375C184.24 79.75 183.552 79.9062 182.781 79.9062C181.406 79.9062 180.354 79.4688 179.625 78.5938C178.917 77.6979 178.562 76.4688 178.562 74.9062C178.562 74.0104 178.698 73.0833 178.969 72.125C179.24 71.1458 179.646 70.2604 180.188 69.4688C180.729 68.6771 181.406 68.0208 182.219 67.5C183.052 66.9792 184.021 66.7188 185.125 66.7188C185.771 66.7188 186.333 66.8646 186.812 67.1562C187.312 67.4271 187.729 67.7708 188.062 68.1875C188.396 68.6042 188.656 69.0521 188.844 69.5312C189.031 69.9896 189.167 70.4062 189.25 70.7812ZM185.438 68.9688C185.292 68.9271 185.146 68.8958 185 68.875C184.875 68.8542 184.74 68.8438 184.594 68.8438C183.948 68.8438 183.365 69.0417 182.844 69.4375C182.344 69.8125 181.917 70.2917 181.562 70.875C181.229 71.4583 180.969 72.0938 180.781 72.7812C180.615 73.4688 180.531 74.1042 180.531 74.6875C180.531 75.6042 180.729 76.3438 181.125 76.9062C181.521 77.4688 182.146 77.75 183 77.75C183.583 77.75 184.125 77.5625 184.625 77.1875C185.125 76.7917 185.552 76.3021 185.906 75.7188C186.26 75.1354 186.531 74.5 186.719 73.8125C186.927 73.1042 187.031 72.4479 187.031 71.8438C187.031 71.1771 186.896 70.5938 186.625 70.0938C186.375 69.5729 185.979 69.1979 185.438 68.9688ZM196.125 79.3438V69.875H192.938L193.125 67.5938H196.562V61.2188H198.688V67.7188H203.812V69.9688H198.469V78.0938L203.188 77.2188L203.5 79.3438L197.25 80.6562L196.125 79.3438ZM214.25 80.0938V68.6562H216.438V80.2188L214.25 80.0938ZM217.125 66.0938L214.938 66.7188L212.938 61.9688L215.125 61.4062L217.125 66.0938ZM227.938 68.0938L227.5 69.9688C227.333 69.8854 227.104 69.8021 226.812 69.7188C226.542 69.6146 226.229 69.5208 225.875 69.4375C225.542 69.3542 225.177 69.2917 224.781 69.25C224.406 69.1875 224.052 69.1562 223.719 69.1562C223.094 69.1562 222.552 69.25 222.094 69.4375C221.656 69.625 221.438 69.9583 221.438 70.4375C221.438 70.7917 221.625 71.0938 222 71.3438C222.375 71.5938 222.812 71.8125 223.312 72C223.833 72.1667 224.344 72.3021 224.844 72.4062C225.365 72.5104 225.771 72.5938 226.062 72.6562C226.688 72.8438 227.188 73.0938 227.562 73.4062C227.958 73.6979 228.26 74.0208 228.469 74.375C228.698 74.7083 228.854 75.0625 228.938 75.4375C229.021 75.8125 229.062 76.1771 229.062 76.5312C229.062 77.2812 228.885 77.9167 228.531 78.4375C228.198 78.9375 227.76 79.3542 227.219 79.6875C226.698 80 226.104 80.2292 225.438 80.375C224.792 80.5208 224.146 80.5938 223.5 80.5938C222.5 80.5938 221.542 80.4583 220.625 80.1875C219.729 79.9167 219.021 79.5521 218.5 79.0938L219.25 76.9688C219.5 77.1771 219.792 77.375 220.125 77.5625C220.479 77.7292 220.865 77.8854 221.281 78.0312C221.698 78.1562 222.135 78.2604 222.594 78.3438C223.052 78.4062 223.5 78.4375 223.938 78.4375C224.688 78.4375 225.354 78.2917 225.938 78C226.521 77.7083 226.875 77.1979 227 76.4688C227 76.3438 226.979 76.1875 226.938 76C226.917 75.7917 226.844 75.5938 226.719 75.4062C226.615 75.2188 226.438 75.0417 226.188 74.875C225.958 74.7083 225.625 74.5938 225.188 74.5312C224.333 74.4062 223.542 74.2396 222.812 74.0312C222.104 73.8229 221.49 73.5625 220.969 73.25C220.448 72.9375 220.031 72.5625 219.719 72.125C219.427 71.6667 219.281 71.1354 219.281 70.5312C219.281 69.3646 219.667 68.5208 220.438 68C221.208 67.4792 222.344 67.2188 223.844 67.2188C224.635 67.2188 225.396 67.3021 226.125 67.4688C226.875 67.6354 227.479 67.8438 227.938 68.0938ZM239.5 80.0938V68.6562H241.688V80.2188L239.5 80.0938ZM242.375 66.0938L240.188 66.7188L238.188 61.9688L240.375 61.4062L242.375 66.0938ZM246.938 79.3438V69.875H243.75L243.938 67.5938H247.375V61.2188H249.5V67.7188H254.625V69.9688H249.281V78.0938L254 77.2188L254.312 79.3438L248.062 80.6562L246.938 79.3438Z" fill="black"/>
</svg>
